<?xml version="1.0" encoding="UTF-8" standalone="no"?>
<!-- Created with Inkscape (http://www.inkscape.org/) -->
<svg
   xmlns:dc="http://purl.org/dc/elements/1.1/"
   xmlns:cc="http://creativecommons.org/ns#"
   xmlns:rdf="http://www.w3.org/1999/02/22-rdf-syntax-ns#"
   xmlns:svg="http://www.w3.org/2000/svg"
   xmlns="http://www.w3.org/2000/svg"
   xmlns:sodipodi="http://sodipodi.sourceforge.net/DTD/sodipodi-0.dtd"
   xmlns:inkscape="http://www.inkscape.org/namespaces/inkscape"
   width="302.54376"
   height="109.52"
   id="svg7314"
   sodipodi:version="0.32"
   inkscape:version="0.46"
   sodipodi:docname="logo.svg"
   inkscape:output_extension="org.inkscape.output.svg.inkscape"
   version="1.0">
  <defs
     id="defs7316">
    <clipPath
       clipPathUnits="userSpaceOnUse"
       id="clipPath5206">
      <path
         d="M 678.402,334.964 L 925.983,334.964 L 925.983,214.214 L 678.402,214.214 L 678.402,334.964 z"
         id="path5208" />
    </clipPath>
    <linearGradient
       x1="0"
       y1="0"
       x2="1"
       y2="0"
       gradientUnits="userSpaceOnUse"
       gradientTransform="matrix(41.7728,0,0,-41.7728,858.61841,199.67731)"
       spreadMethod="pad"
       id="linearGradient6934">
      <stop
         style="stop-opacity:1;stop-color:#ef3220"
         offset="0"
         id="stop6936" />
      <stop
         style="stop-opacity:1;stop-color:#fedd03"
         offset="0.5"
         id="stop6938" />
      <stop
         style="stop-opacity:1;stop-color:#fedd03"
         offset="0.5"
         id="stop6940" />
      <stop
         style="stop-opacity:1;stop-color:#ef3220"
         offset="0.98"
         id="stop6942" />
      <stop
         style="stop-opacity:1;stop-color:#ef3220"
         offset="1"
         id="stop6944" />
    </linearGradient>
    <linearGradient
       x1="0"
       y1="0"
       x2="1"
       y2="0"
       gradientUnits="userSpaceOnUse"
       gradientTransform="matrix(-11.15397,0,0,11.15397,883.52826,206.98274)"
       spreadMethod="pad"
       id="linearGradient6958">
      <stop
         style="stop-opacity:1;stop-color:#fdd904"
         offset="0"
         id="stop6960" />
      <stop
         style="stop-opacity:1;stop-color:#ed1c24"
         offset="0.9"
         id="stop6962" />
      <stop
         style="stop-opacity:1;stop-color:#ed1c24"
         offset="0.9"
         id="stop6964" />
      <stop
         style="stop-opacity:1;stop-color:#ed1c24"
         offset="1"
         id="stop6966" />
    </linearGradient>
    <linearGradient
       x1="0"
       y1="0"
       x2="1"
       y2="0"
       gradientUnits="userSpaceOnUse"
       gradientTransform="matrix(11.1571,0,0,-11.1571,875.46466,192.36775)"
       spreadMethod="pad"
       id="linearGradient6980">
      <stop
         style="stop-opacity:1;stop-color:#fdd904"
         offset="0"
         id="stop6982" />
      <stop
         style="stop-opacity:1;stop-color:#ed1c24"
         offset="0.9"
         id="stop6984" />
      <stop
         style="stop-opacity:1;stop-color:#ed1c24"
         offset="0.9"
         id="stop6986" />
      <stop
         style="stop-opacity:1;stop-color:#ed1c24"
         offset="1"
         id="stop6988" />
    </linearGradient>
    <clipPath
       clipPathUnits="userSpaceOnUse"
       id="clipPath6996">
      <path
         d="M 854.892,227.87 L 900.512,227.87 L 900.512,169.59 L 854.892,169.59 L 854.892,227.87 z"
         id="path6998" />
    </clipPath>
    <inkscape:perspective
       sodipodi:type="inkscape:persp3d"
       inkscape:vp_x="0 : 526.18109 : 1"
       inkscape:vp_y="0 : 1000 : 0"
       inkscape:vp_z="744.09448 : 526.18109 : 1"
       inkscape:persp3d-origin="372.04724 : 350.78739 : 1"
       id="perspective7322" />
  </defs>
  <sodipodi:namedview
     id="base"
     pagecolor="#ffffff"
     bordercolor="#666666"
     borderopacity="1.0"
     gridtolerance="10000"
     guidetolerance="10"
     objecttolerance="10"
     inkscape:pageopacity="0.0"
     inkscape:pageshadow="2"
     inkscape:zoom="1"
     inkscape:cx="86.683795"
     inkscape:cy="31.379293"
     inkscape:document-units="px"
     inkscape:current-layer="layer1"
     showgrid="false"
     inkscape:window-width="1280"
     inkscape:window-height="750"
     inkscape:window-x="-8"
     inkscape:window-y="-8" />
  <metadata
     id="metadata7319">
    <rdf:RDF>
      <cc:Work
         rdf:about="">
        <dc:format>image/svg+xml</dc:format>
        <dc:type
           rdf:resource="http://purl.org/dc/dcmitype/StillImage" />
      </cc:Work>
    </rdf:RDF>
  </metadata>
  <g
     inkscape:label="Layer 1"
     inkscape:groupmode="layer"
     id="layer1"
     transform="translate(-3.01681,-3.73344)">
    <g
       transform="matrix(1.25,0,0,-1.25,-851.91819,418.66344)"
       id="g5202">
      <g
         id="g5204"
         clip-path="url(#clipPath5206)">
        <path
           d="M 792.696,254.055 L 792.5,254.055 L 792.5,254.948 L 792.171,254.055 L 791.972,254.055 L 791.646,254.948 L 791.646,254.055 L 791.448,254.055 L 791.448,255.291 L 791.711,255.291 L 792.072,254.296 L 792.435,255.291 L 792.696,255.291 L 792.696,254.055 z M 791.32,255.291 L 791.32,255.107 L 790.971,255.107 L 790.971,254.055 L 790.776,254.055 L 790.776,255.107 L 790.421,255.107 L 790.421,255.291 L 791.32,255.291"
           style="fill:#ffffff;fill-opacity:1;fill-rule:nonzero;stroke:none"
           id="path5210" />
        <path
           d="M 1020.14,331.944 L 771.806,331.944 L 771.806,331.939 L 695.451,331.939 C 689.071,331.939 683.948,326.846 683.948,320.524 L 684.007,244.328 L 684.244,244.89 C 684.244,244.89 690.582,258.671 707.013,260.004 L 707.444,260.066 L 1020.14,259.966 C 1026.64,259.966 1032.008,265.208 1032.008,271.747 L 1032.008,320.027 C 1032.008,326.564 1026.64,331.834 1020.14,331.944"
           style="fill:#ffffff;fill-opacity:1;fill-rule:nonzero;stroke:none"
           id="path5212" />
      </g>
    </g>
    <path
       d="M 70.008062,19.600937 L 65.194312,19.600937 C 64.618062,19.600937 64.156812,20.062187 64.156812,20.638437 L 64.159312,27.240937 L 64.180562,27.240937 C 64.180562,27.240937 64.759312,25.994687 66.238062,25.878437 L 66.273062,25.874687 L 70.008062,25.874687 C 70.571812,25.874687 71.040562,25.414687 71.040562,24.840937 L 71.040562,20.638437 C 71.040562,20.062187 70.571812,19.600937 70.008062,19.600937"
       style="fill:#859199;fill-opacity:1;fill-rule:nonzero;stroke:none"
       id="path5214" />
    <path
       d="M 31.903062,54.593437 C 35.780562,57.46969 42.535562,59.91469 47.510562,59.91469 C 51.650562,59.91469 55.613062,59.15469 55.613062,55.77844 C 55.613062,52.235937 51.473062,51.725937 46.668062,50.970937 C 38.146812,49.617187 31.643062,48.014687 31.643062,39.999687 C 31.643062,33.818437 37.466812,30.100937 45.820562,30.100937 C 50.299312,30.100937 56.371812,31.529687 59.324312,32.807187 L 59.324312,39.493437 C 56.119312,37.810937 49.535562,36.283437 45.820562,36.283437 C 41.351812,36.283437 38.313062,37.380937 38.313062,39.915937 C 38.313062,42.950937 42.613062,43.375937 46.668062,44.048437 C 54.686812,45.315937 62.280562,47.679687 62.280562,55.69719 C 62.280562,62.19344 56.961812,66.07594 47.510562,66.07594 C 41.855562,66.07594 34.684312,63.45344 31.903062,61.68719 L 31.903062,54.593437"
       style="fill:#344447;fill-opacity:1;fill-rule:nonzero;stroke:none"
       id="path5216" />
    <path
       d="M 71.174312,31.129687 L 71.174312,64.97594 L 64.335562,64.97594 L 64.335562,31.078437 L 71.174312,31.129687"
       style="fill:#344447;fill-opacity:1;fill-rule:nonzero;stroke:none"
       id="path5218" />
    <path
       d="M 93.703062,36.794687 C 89.324312,36.794687 83.496812,38.649687 80.796812,40.163437 L 80.796812,64.97594 L 73.961812,64.97594 L 73.961812,31.869687 L 80.796812,29.508437 L 80.796812,33.652187 C 84.350562,32.040937 90.589312,30.354687 94.298062,30.354687 C 106.20306,30.354687 107.88931,36.704687 107.88931,42.872187 L 107.88931,64.97594 L 101.05556,64.97594 L 101.05556,43.454687 C 101.05556,39.322187 100.04056,36.794687 93.703062,36.794687"
       style="fill:#344447;fill-opacity:1;fill-rule:nonzero;stroke:none"
       id="path5220" />
    <path
       d="M 142.64806,54.593437 C 146.52806,57.46969 153.27681,59.91469 158.25806,59.91469 C 162.39306,59.91469 166.35556,59.15469 166.35556,55.77844 C 166.35556,52.235937 162.22431,51.725937 157.41181,50.970937 C 148.89306,49.617187 142.39181,48.014687 142.39181,39.999687 C 142.39181,33.818437 148.21681,30.100937 156.56931,30.100937 C 161.04431,30.100937 167.11681,31.529687 170.07056,32.807187 L 170.07056,39.493437 C 166.86181,37.810937 160.28056,36.283437 156.56931,36.283437 C 152.09431,36.283437 149.06056,37.380937 149.06056,39.915937 C 149.06056,42.950937 153.36181,43.375937 157.41181,44.048437 C 165.43306,45.315937 173.03306,47.679687 173.03306,55.69719 C 173.03306,62.19344 167.70681,66.07594 158.25806,66.07594 C 152.60306,66.07594 145.43056,63.45344 142.64806,61.68719 L 142.64806,54.593437"
       style="fill:#859199;fill-opacity:1;fill-rule:nonzero;stroke:none"
       id="path5222" />
    <path
       d="M 186.20681,37.380937 L 186.20681,51.725937 C 186.20681,57.04594 187.30056,59.57344 193.79681,59.57344 C 195.65556,59.57344 199.45056,58.90219 202.06931,58.05594 L 202.06931,64.13594 C 198.86431,65.06344 195.32181,65.81344 192.95056,65.81344 C 181.31181,65.81344 179.36806,60.33594 179.36806,51.725937 L 179.36806,37.380937 L 171.68931,37.380937 L 171.68931,31.197187 L 179.36806,31.197187 L 179.36806,21.745937 L 186.20681,19.467187 L 186.20681,31.197187 L 202.06931,31.197187 L 202.06931,37.380937 L 186.20681,37.380937"
       style="fill:#859199;fill-opacity:1;fill-rule:nonzero;stroke:none"
       id="path5224" />
    <path
       d="M 219.62306,59.66094 C 224.60556,59.66094 228.40556,57.63344 230.50931,55.18844 L 230.50931,41.014687 C 228.73556,38.732187 224.60556,36.529687 219.62306,36.529687 C 211.43431,36.529687 208.05806,41.607187 208.05806,48.105937 C 208.05806,54.682187 211.43431,59.66094 219.62306,59.66094 M 237.34181,30.947187 L 237.34181,57.54969 C 237.34181,60.07969 238.52306,60.67094 240.63556,60.67094 C 241.47931,60.67094 242.32181,60.50719 243.08431,60.16219 L 243.08431,64.63969 C 241.22556,65.39844 239.20181,65.81344 237.17306,65.81344 C 233.79931,65.81344 231.34806,64.39344 230.68306,62.19344 C 227.72181,64.39344 223.25056,65.81344 219.19806,65.81344 C 207.80431,65.81344 201.22806,58.64594 201.22806,48.105937 C 201.22806,37.553437 207.80431,30.354687 219.19806,30.354687 C 223.42056,30.354687 228.14681,32.295937 230.50931,33.818437 L 237.34181,30.947187"
       style="fill:#859199;fill-opacity:1;fill-rule:nonzero;stroke:none"
       id="path5226" />
    <path
       d="M 250.93431,29.508437 L 250.93431,35.862187 C 254.65556,32.464687 262.41431,29.929687 265.87056,29.929687 L 265.87056,37.380937 C 261.82431,37.380937 254.06556,39.155937 250.93431,41.690937 L 250.93431,64.97594 L 244.10306,64.97594 L 244.10306,31.869687 L 250.93431,29.508437"
       style="fill:#859199;fill-opacity:1;fill-rule:nonzero;stroke:none"
       id="path5228" />
    <path
       d="M 125.70681,79.07344 C 116.41681,79.07344 113.71806,77.29594 113.71806,73.92469 C 113.71806,70.54594 116.41681,68.76969 125.70681,68.76969 C 134.99806,68.76969 137.78181,70.54594 137.78181,73.92469 C 137.78181,77.29594 134.99806,79.07344 125.70681,79.07344 M 125.70681,36.427187 C 132.20806,36.427187 134.57181,39.887187 134.57181,44.535937 C 134.57181,49.178437 132.20806,52.730937 125.70681,52.730937 C 119.20681,52.730937 116.83181,49.178437 116.83181,44.535937 C 116.83181,39.887187 119.20681,36.427187 125.70681,36.427187 M 125.70681,63.28469 C 123.59556,63.28469 121.22931,63.44469 119.12056,63.44469 C 117.25806,63.44469 115.99306,62.26344 115.99306,60.40594 C 115.99306,58.55219 117.59556,57.36719 120.13431,57.36719 C 121.82181,57.36719 123.76931,57.79594 125.70681,57.79594 C 135.92806,57.79594 140.99181,52.222187 140.99181,44.455937 C 140.99181,41.752187 140.39681,39.303437 139.22056,37.352187 L 139.23681,37.352187 C 136.94556,33.514687 132.48931,31.175937 125.82556,31.175937 L 125.28306,31.175937 C 115.43556,31.328437 110.50556,36.712187 110.50556,44.455937 C 110.50556,48.422187 111.86056,51.795937 114.47681,54.248437 C 111.60306,55.68219 110.08431,57.87719 110.08431,60.40594 C 110.08431,62.60594 111.01181,64.29219 112.70806,65.56469 C 109.31806,67.25219 107.46556,70.11719 107.46556,73.92469 C 107.46556,80.41969 112.70806,84.56344 125.70681,84.56344 C 138.71431,84.56344 143.94806,80.41969 143.94806,73.92469 C 143.94806,67.33344 138.71431,63.28469 125.70681,63.28469"
       style="fill:#344447;fill-opacity:1;fill-rule:nonzero;stroke:none"
       id="path5230" />
    <path
       d="M 270.06681,32.032187 L 270.35056,32.032187 C 270.67056,32.032187 270.94431,31.917187 270.94431,31.612187 C 270.94431,31.398437 270.78806,31.183437 270.35056,31.183437 C 270.22306,31.183437 270.13431,31.193437 270.06681,31.202187 L 270.06681,32.032187 z M 270.06681,33.389687 L 269.67556,33.389687 L 269.67556,30.939687 C 269.87931,30.909687 270.07556,30.880937 270.36931,30.880937 C 270.73806,30.880937 270.98431,30.958437 271.13056,31.065937 C 271.27806,31.174687 271.35556,31.339687 271.35556,31.574687 C 271.35556,31.895937 271.13931,32.092187 270.87681,32.169687 L 270.87681,32.188437 C 271.09056,32.228437 271.23806,32.423437 271.28806,32.785937 C 271.34556,33.165937 271.40431,33.313437 271.44431,33.389687 L 271.03431,33.389687 C 270.97556,33.313437 270.91431,33.088437 270.86556,32.764687 C 270.80681,32.453437 270.65306,32.335937 270.33806,32.335937 L 270.06681,32.335937 L 270.06681,33.389687 z M 270.47681,30.255937 C 269.50806,30.255937 268.71681,31.084687 268.71681,32.110937 C 268.71681,33.155937 269.50806,33.975937 270.48556,33.975937 C 271.46306,33.987187 272.24556,33.155937 272.24556,32.119687 C 272.24556,31.084687 271.46306,30.255937 270.48556,30.255937 L 270.47681,30.255937 z M 270.48556,29.913437 C 271.68806,29.913437 272.64681,30.889687 272.64681,32.110937 C 272.64681,33.352187 271.68806,34.318437 270.47681,34.318437 C 269.27431,34.318437 268.29806,33.352187 268.29806,32.110937 C 268.29806,30.889687 269.27431,29.913437 270.47681,29.913437 L 270.48556,29.913437"
       style="fill:#859199;fill-opacity:1;fill-rule:nonzero;stroke:none"
       id="path5232" />
  </g>
</svg>
